<svg width="22" height="21" viewBox="0 0 22 21" fill="none" xmlns="http://www.w3.org/2000/svg">
<path d="M20.2611 4.38995L15.7665 0.176239C15.646 0.0632858 15.4839 0 15.3148 0H3.95178C2.62579 0 1.54688 1.02972 1.54688 2.29559V18.7044C1.54688 19.9701 2.62563 21 3.95178 21H18.0491C19.375 21 20.454 19.9703 20.454 18.7044V4.82895C20.454 4.66376 20.3845 4.50563 20.2611 4.38995ZM15.9594 2.08186L18.2334 4.21371H16.1643C16.0513 4.21371 15.9594 4.12592 15.9594 4.01809V2.08186ZM18.0491 19.7695H3.95178C3.33662 19.7695 2.83594 19.2918 2.83594 18.7044V2.29559C2.83594 1.70824 3.33646 1.23047 3.95178 1.23047H14.6705V4.01809C14.6705 4.80444 15.3407 5.44418 16.1645 5.44418H19.1649V18.7044C19.1649 19.2918 18.6644 19.7695 18.0491 19.7695Z" fill="#404243"/>
<path d="M15.4749 9.76172H6.38904C6.03304 9.76172 5.74451 10.0371 5.74451 10.377C5.74451 10.7168 6.03304 10.9922 6.38904 10.9922H15.4749C15.8309 10.9922 16.1194 10.7168 16.1194 10.377C16.1194 10.0371 15.8309 9.76172 15.4749 9.76172Z" fill="#404243"/>
<path d="M6.38904 13.4531H13.7975C14.1535 13.4531 14.442 13.1777 14.442 12.8379C14.442 12.4981 14.1535 12.2227 13.7975 12.2227H6.38904C6.03304 12.2227 5.74451 12.4981 5.74451 12.8379C5.74451 13.1777 6.03304 13.4531 6.38904 13.4531Z" fill="#404243"/>
<path d="M14.6912 14.6836H6.38904C6.03304 14.6836 5.74451 14.959 5.74451 15.2988C5.74451 15.6386 6.03304 15.9141 6.38904 15.9141H14.6912C15.0471 15.9141 15.3358 15.6386 15.3358 15.2988C15.3358 14.959 15.0471 14.6836 14.6912 14.6836Z" fill="#404243"/>
</svg>
