<svg width="25" height="26" viewBox="0 0 25 26" fill="none" xmlns="http://www.w3.org/2000/svg">
<path d="M16.6666 22.75V20.5833C16.6666 19.4341 16.2276 18.3319 15.4462 17.5192C14.6648 16.7065 13.605 16.25 12.5 16.25H5.20829C4.10322 16.25 3.04342 16.7065 2.26201 17.5192C1.48061 18.3319 1.04163 19.4341 1.04163 20.5833V22.75" stroke="#404243" stroke-width="2" stroke-linecap="round" stroke-linejoin="round"/>
<path d="M8.85417 11.9167C11.1554 11.9167 13.0208 9.97657 13.0208 7.58333C13.0208 5.1901 11.1554 3.25 8.85417 3.25C6.55298 3.25 4.6875 5.1901 4.6875 7.58333C4.6875 9.97657 6.55298 11.9167 8.85417 11.9167Z" stroke="#404243" stroke-width="2" stroke-linecap="round" stroke-linejoin="round"/>
<path d="M20.8334 8.66675V15.1667" stroke="#404243" stroke-width="2" stroke-linecap="round" stroke-linejoin="round"/>
<path d="M23.9584 11.9167H17.7084" stroke="#404243" stroke-width="2" stroke-linecap="round" stroke-linejoin="round"/>
</svg>
