<svg width="26" height="27" viewBox="0 0 26 27" fill="none" xmlns="http://www.w3.org/2000/svg">
<path d="M18.4167 23.625V21.375C18.4167 20.1815 17.9602 19.0369 17.1475 18.193C16.3348 17.3491 15.2326 16.875 14.0834 16.875H5.41671C4.26744 16.875 3.16524 17.3491 2.35258 18.193C1.53992 19.0369 1.08337 20.1815 1.08337 21.375V23.625" stroke="#2069F3" stroke-width="2" stroke-linecap="round" stroke-linejoin="round"/>
<path d="M9.74996 12.375C12.1432 12.375 14.0833 10.3603 14.0833 7.875C14.0833 5.38972 12.1432 3.375 9.74996 3.375C7.35673 3.375 5.41663 5.38972 5.41663 7.875C5.41663 10.3603 7.35673 12.375 9.74996 12.375Z" stroke="#2069F3" stroke-width="2" stroke-linecap="round" stroke-linejoin="round"/>
<path d="M24.9166 23.625V21.375C24.9159 20.3779 24.5963 19.4094 24.0081 18.6213C23.4199 17.8333 22.5963 17.2705 21.6666 17.0212" stroke="#2069F3" stroke-width="2" stroke-linecap="round" stroke-linejoin="round"/>
<path d="M17.3334 3.52124C18.2655 3.76908 19.0917 4.33203 19.6816 5.12134C20.2716 5.91065 20.5919 6.88142 20.5919 7.88061C20.5919 8.87981 20.2716 9.85058 19.6816 10.6399C19.0917 11.4292 18.2655 11.9922 17.3334 12.24" stroke="#2069F3" stroke-width="2" stroke-linecap="round" stroke-linejoin="round"/>
</svg>
