<!-- Generated by IcoMoon.io -->
<svg version="1.1" xmlns="http://www.w3.org/2000/svg" width="31" height="32" viewBox="0 0 31 32">
<title>users-1</title>
<path fill="none" stroke="#2069f3" stroke-linejoin="round" stroke-linecap="round" stroke-miterlimit="4" stroke-width="2.3704" d="M21.827 28v-2.667c0-1.415-0.541-2.771-1.504-3.771s-2.27-1.562-3.632-1.562h-10.272c-1.362 0-2.668 0.562-3.632 1.562s-1.504 2.357-1.504 3.771v2.667"></path>
<path fill="none" stroke="#2069f3" stroke-linejoin="round" stroke-linecap="round" stroke-miterlimit="4" stroke-width="2.3704" d="M11.556 14.667c2.836 0 5.136-2.388 5.136-5.333s-2.299-5.333-5.136-5.333c-2.836 0-5.136 2.388-5.136 5.333s2.299 5.333 5.136 5.333z"></path>
<path fill="none" stroke="#2069f3" stroke-linejoin="round" stroke-linecap="round" stroke-miterlimit="4" stroke-width="2.3704" d="M29.531 28v-2.667c-0.001-1.182-0.38-2.33-1.077-3.264s-1.673-1.601-2.775-1.896"></path>
<path fill="none" stroke="#2069f3" stroke-linejoin="round" stroke-linecap="round" stroke-miterlimit="4" stroke-width="2.3704" d="M20.543 4.173c1.105 0.294 2.084 0.961 2.783 1.896s1.079 2.086 1.079 3.27-0.38 2.335-1.079 3.27c-0.699 0.935-1.678 1.603-2.783 1.896"></path>
</svg>
